<svg width="48" height="48" viewBox="0 0 48 48" fill="none" xmlns="http://www.w3.org/2000/svg">
<path d="M19.257 4.81266C19.9802 4.79334 20.6853 4.79153 21.4077 4.83743C30.8257 5.4359 38.133 12.6469 39.0296 22.0063C36.9851 22.0289 34.7502 22.0531 32.7235 21.9856C32.3134 18.7109 30.5412 15.9726 28.054 13.9401C21.6695 8.72279 11.7154 11.0877 8.25574 18.502C7.63022 19.8427 7.32095 20.553 7.08373 22.0845C6.53367 25.5643 7.38102 29.1206 9.4412 31.9785C10.6301 33.429 11.5006 34.3505 13.1048 35.3517C15.0976 36.6173 17.4013 37.3078 19.7617 37.3469C20.6775 37.3699 21.5762 37.2734 22.488 37.1973C22.3701 37.5284 21.9334 38.2297 21.7594 38.5969C21.0103 40.1776 20.1679 41.6023 19.4289 43.1909C9.34406 43.2209 1.11884 35.0995 0.60761 25.0894C0.0581239 14.3299 8.42886 5.24178 19.257 4.81266Z" fill="#1C49E5" style="fill:#1C49E5;fill:color(display-p3 0.1098 0.2863 0.8980);fill-opacity:1;"/>
<path d="M32.907 24.9159C33.0667 24.9049 33.2563 24.9154 33.4184 24.916C35.169 24.9219 36.9089 24.879 38.6599 24.9395L45.5487 39.0048C46.0501 40.0404 46.6275 41.0455 47.0499 42.1217C47.1478 42.3721 47.5475 42.9444 47.3797 43.1763L47.1754 43.1862C45.3758 43.2019 43.2449 43.2144 41.4595 43.1608C40.9934 42.4288 40.4991 41.223 40.0965 40.412L36.8901 33.8851L33.6924 27.4416C33.2672 26.5888 32.8218 25.8451 32.4316 24.9621C32.5297 24.9035 32.7725 24.9192 32.907 24.9159Z" fill="#52D5FF" style="fill:#52D5FF;fill:color(display-p3 0.3216 0.8353 1.0000);fill-opacity:1;"/>
<path d="M30.6644 27.2427C30.7806 27.315 32.5244 31.0397 32.7706 31.5039C32.941 31.8251 33.5205 32.8863 33.6434 33.2433C33.4826 33.6613 33.0459 34.3516 32.8139 34.7676C31.2897 37.5006 29.9089 40.5135 28.3075 43.1923C27.5034 43.1418 26.1696 43.1758 25.3283 43.1735C24.3159 43.1627 23.3035 43.1625 22.291 43.173C22.6484 42.6058 22.9193 41.8626 23.245 41.2591C25.7468 36.6238 28.0642 31.8212 30.6644 27.2427Z" fill="#1C49E5" style="fill:#1C49E5;fill:color(display-p3 0.1098 0.2863 0.8980);fill-opacity:1;"/>
</svg>
